<svg xmlns="http://www.w3.org/2000/svg" width="32" height="32" viewBox="0 0 32 32">
  <!-- pass-winmenu-2 keyhole icon. The .ico files are generated by generate_icons.py,
       which mirrors this geometry (plus a faint dark outline for light taskbars). -->
  <g id="icon">
    <path fill="#ffffff" fill-rule="evenodd"
          d="M16 3 a13 13 0 1 0 0 26 a13 13 0 1 0 0 -26 z
             M16 7.3 A4.2 4.2 0 0 0 13.4 14.8 L11.2 23.5 L20.8 23.5 L18.6 14.8 A4.2 4.2 0 0 0 16 7.3 Z"/>
  </g>
  <g id="overlay-ahead" display="none">
    <circle cx="24.6" cy="24.6" r="6.4" fill="#3fb950"/>
    <path fill="#ffffff" d="M24.6 21 l3.4 3.8 h-2.1 v3.6 h-2.6 v-3.6 h-2.1 z"/>
  </g>
  <g id="overlay-behind" display="none">
    <circle cx="24.6" cy="24.6" r="6.4" fill="#388bfd"/>
    <path fill="#ffffff" d="M24.6 28.2 l3.4 -3.8 h-2.1 v-3.6 h-2.6 v3.6 h-2.1 z"/>
  </g>
  <g id="overlay-diverged" display="none">
    <circle cx="24.6" cy="24.6" r="6.4" fill="#db6d28"/>
    <path fill="#ffffff" d="M24.6 21.2 l3.2 3.4 -3.2 3.4 -3.2 -3.4 z"/>
  </g>
</svg>
